<?xml version="1.0" standalone="no"?>
<!DOCTYPE svg PUBLIC "-//W3C//DTD SVG 20010904//EN"
 "http://www.w3.org/TR/2001/REC-SVG-20010904/DTD/svg10.dtd">
<svg version="1.0" xmlns="http://www.w3.org/2000/svg"
 width="840.000000pt" height="722.000000pt" viewBox="0 0 840.000000 722.000000"
 preserveAspectRatio="xMidYMid meet">

<g transform="translate(0.000000,722.000000) scale(0.100000,-0.100000)"
fill="#000000" stroke="none">
<path d="M6476 6794 c-176 -32 -371 -117 -520 -228 -407 -301 -590 -818 -465
-1311 36 -142 -12 -43 894 -1818 171 -334 312 -607 315 -607 7 0 19 24 673
1305 261 512 488 969 505 1015 52 149 67 238 67 415 0 224 -29 353 -125 551
-171 355 -513 610 -907 679 -107 19 -331 18 -437 -1z m459 -518 c238 -81 409
-259 486 -506 34 -108 34 -302 0 -410 -66 -214 -199 -370 -396 -465 -111 -53
-205 -75 -328 -75 -337 0 -635 230 -723 560 -24 89 -24 281 0 370 71 264 276
470 539 541 111 29 313 22 422 -15z"/>
<path d="M955 2820 c-410 -819 -745 -1492 -745 -1495 0 -3 449 -229 998 -504
l997 -499 997 499 997 498 1002 -499 1002 -499 998 500 999 499 -421 842 -421
842 -51 -96 c-29 -53 -92 -178 -142 -277 l-90 -181 227 -453 226 -453 -574
-287 c-383 -191 -576 -283 -579 -275 -2 7 -90 442 -195 967 l-191 954 35 36
35 36 -117 232 -118 233 -60 -61 -61 -61 -739 493 c-406 270 -746 494 -755
496 -10 3 -312 -192 -760 -491 l-744 -496 -495 495 c-272 272 -498 495 -503
495 -4 0 -342 -670 -752 -1490z m4028 378 c279 -186 507 -342 507 -346 0 -4
81 -407 179 -897 98 -490 177 -891 176 -893 -2 -2 -316 154 -699 345 l-696
348 0 898 c0 716 3 897 13 891 6 -5 240 -160 520 -346z m-1033 -551 l0 -892
-695 -348 c-382 -191 -695 -341 -695 -334 0 22 352 1775 359 1785 8 12 1013
682 1023 682 5 0 8 -402 8 -893z m-1729 -709 c-106 -530 -194 -964 -196 -966
-5 -5 -1145 568 -1145 575 0 5 140 287 311 628 171 341 387 773 481 959 l170
339 286 -286 286 -286 -193 -963z"/>
</g>
</svg>
